<?xml version="1.0" encoding="UTF-8"?>
<svg width="19px" height="28px" viewBox="0 0 19 28" version="1.1" xmlns="http://www.w3.org/2000/svg" xmlns:xlink="http://www.w3.org/1999/xlink">
    <title>Combined Shape</title>
    <g id="Page-1" stroke="none" stroke-width="1" fill="none" fill-rule="evenodd">
        <g id="Homepage" transform="translate(-176.000000, -527.000000)" fill="#7562E0" fill-rule="nonzero">
            <g id="Group-2" transform="translate(176.000000, 527.000000)">
                <path d="M9.5,0 C14.7382848,0 19,4.26286561 19,9.50263435 C19,11.6084641 17.7606963,14.8106969 15.0998148,19.5801555 C13.2701278,22.8598525 11.4759162,25.585054 11.40041,25.6995415 L11.40041,25.6995415 L10.0941415,27.6800615 C9.96243272,27.8798166 9.73927377,28 9.5,28 C9.26072623,28 9.03756728,27.8798166 8.90585852,27.6800615 L8.90585852,27.6800615 L7.59953307,25.6994276 C7.52328662,25.58363 5.71592122,22.8346766 3.90018521,19.5801555 C1.23930374,14.8104691 0,11.6082363 0,9.50263435 C0,4.26286561 4.26171524,0 9.5,0 Z M9.5,1.42397403 C5.0466152,1.42397403 1.42357073,5.04804488 1.42357073,9.50263435 C1.42357073,11.3047589 2.67506024,14.4618802 5.14324718,18.8862245 C6.93375751,22.0954063 8.71316398,24.8018683 8.78798686,24.9155014 L8.78798686,24.9155014 L9.5,25.9951015 L10.2122409,24.9152166 C10.2866652,24.8024948 12.0525193,22.1200695 13.8567528,18.8862245 C16.3249398,14.4619941 17.5764293,11.3049868 17.5764293,9.50263435 C17.5764293,5.04804488 13.9533848,1.42397403 9.5,1.42397403 Z M9.5,4 C12.5327297,4 15,6.46732973 15,9.5 C15,12.5326703 12.5327297,15 9.5,15 C6.46727027,15 4,12.5326703 4,9.5 C4,6.46732973 6.46727027,4 9.5,4 Z M9.5,5.48648649 C7.28691892,5.48648649 5.48648649,7.28691892 5.48648649,9.5 C5.48648649,11.7130811 7.28691892,13.5135135 9.5,13.5135135 C11.7131405,13.5135135 13.5135135,11.7130811 13.5135135,9.5 C13.5135135,7.28691892 11.7131405,5.48648649 9.5,5.48648649 Z" id="Combined-Shape"></path>
            </g>
        </g>
    </g>
</svg>